o unknown
v 1 0 1
v 1 1 1
v 0 1 1
v 0 0 1
v 0 0 0
v 0 1 0
v 1 1 0
v 1 0 0
vt 0 0.25
vt 0 0
vt 0.25 0
vt 0.25 0.25
vt 0.25 0.25
vt 0.25 0
vt 0.5 0
vt 0.5 0.25
vt 0.5 0.25
vt 0.5 0
vt 0.75 0
vt 0.75 0.25
vt 0.75 0.25
vt 0.75 0
vt 1 0
vt 1 0.25
vt 0 0.5
vt 0 0.25
vt 0.25 0.25
vt 0.25 0.5
vt 0.25 0.5
vt 0.25 0.25
vt 0.5 0.25
vt 0.5 0.5
vn 0 0 1
vn 0 0 -1
vn 1 0 0
vn -1 0 0
vn 0 1 0
vn 0 -1 0
f 1/1/1 2/2/1 3/3/1 4/4/1
f 5/5/2 6/6/2 7/7/2 8/8/2
f 1/9/3 8/10/3 7/11/3 2/12/3
f 3/13/4 6/14/4 5/15/4 4/16/4
f 2/17/5 7/18/5 6/19/5 3/20/5
f 4/21/6 5/22/6 8/23/6 1/24/6
o plane
v 0 0.9999999999999999 0.49999999999999983
v 0 1.3464548246917325 0.35649371286309106
v 1 1.0000000000000002 0.5000000000000008
v 1 1.3464548246917327 0.356493712863092
v 0.9999999999999999 1.0000000000000002 0.5
v 0.9999999999999999 1.346454824691733 0.3564937128630917
v -1.1102230246251565e-16 1.0000000000000002 0.49999999999999983
v -1.1102230246251565e-16 1.346454824691733 0.35649371286309184
vt 0.25 0.75
vt 0.25 0.84375
vt 0 0.84375
vt 0 0.75
vt 0.25 0.75
vt 0.25 0.84375
vt 0 0.84375
vt 0 0.75
vn 1.0106430996148608e-15 -0.3826834323650902 -0.9238795325112867
vn 1.5027467319553725e-16 0.3826834323650887 0.9238795325112872
f 9/25/7 10/26/7 12/27/7 11/28/7
f 13/29/8 14/30/8 16/31/8 15/32/8
o plane
v 0.9999999972060319 4.4714008682662435e-9 0.5000000080406263
v 1.0000000027939677 -0.33986541158088807 0.34151815112443384
v -2.793967612824133e-9 -8.557856218065522e-9 0.5000000007228051
v 2.7939681679356454e-9 -0.3398654246101452 0.3415181438066127
v -2.7939675018018306e-9 -8.557856109902442e-9 0.5000000007228044
v 2.793968278957948e-9 -0.33986542461014535 0.34151814380661244
v 0.999999997206032 4.471400626564411e-9 0.5000000080406262
v 1.0000000027939677 -0.3398654115808888 0.3415181511244346
vt 0.25 0.75
vt 0.25 0.84375
vt 0 0.84375
vt 0 0.75
vt 0.25 0.75
vt 0.25 0.84375
vt 0 0.84375
vt 0 0.75
vn 1.125795900946945e-9 0.4226182851098464 -0.9063077761394375
vn -1.1257970618647396e-9 -0.42261828510984506 0.906307776139438
f 17/33/9 18/34/9 20/35/9 19/36/9
f 21/37/10 22/38/10 24/39/10 23/40/10
o plane
v -3.2571274712434375e-15 0 0.5000000000000072
v -0.34645482469173483 2.220446049250313e-16 0.35649371286309606
v 3.0174543062507884e-15 1 0.4999999999999934
v -0.3464548246917285 1.0000000000000002 0.3564937128630823
v 3.0981734163677142e-15 0.9999999999999999 0.4999999999999926
v -0.34645482469172867 1 0.35649371286308207
v -3.4932131717929424e-15 -1.1102230246251565e-16 0.5000000000000072
v -0.3464548246917354 1.1102230246251565e-16 0.35649371286309695
vt 0.25 0.75
vt 0.25 0.84375
vt 0 0.84375
vt 0 0.75
vt 0.25 0.75
vt 0.25 0.84375
vt 0 0.84375
vt 0 0.75
vn 0.3826834323650962 -1.5129229005815906e-14 -0.9238795325112841
vn -0.38268343236509483 1.6290146778626304e-14 0.9238795325112847
f 25/41/11 26/42/11 28/43/11 27/44/11
f 29/45/12 30/46/12 32/47/12 31/48/12
o plane
v 0.9999999931165647 0.999999997206032 0.500000002851222
v 1.3464548178082971 1.0000000027939673 0.35649371571431326
v 1.0000000068834356 -2.7939675018018306e-9 0.4999999971487786
v 1.3464548315751679 2.7939677238464355e-9 0.3564937100118698
v 1.0000000068834354 -2.793967390779528e-9 0.4999999971487778
v 1.346454831575168 2.793967834868738e-9 0.3564937100118695
v 0.999999993116565 0.9999999972060323 0.500000002851222
v 1.3464548178082978 1.0000000027939673 0.3564937157143141
vt 0.25 0.75
vt 0.25 0.84375
vt 0 0.84375
vt 0 0.75
vt 0.25 0.75
vt 0.25 0.84375
vt 0 0.84375
vt 0 0.75
vn -0.38268343236509017 1.743514376266112e-14 -0.9238795325112866
vn 0.3826834323650888 -1.8596061557529666e-14 0.9238795325112873
f 33/49/13 34/50/13 36/51/13 35/52/13
f 37/53/14 38/54/14 40/55/14 39/56/14
o plane
v 0.5000000000000003 0.9999999999999993 0
v 0.5000000000000016 1.3749999999999993 -5.551115123125783e-16
v 0.49999999999999895 1.0000000000000007 1
v 0.5 1.3750000000000007 0.9999999999999994
v 0.49999999999999967 1.0000000000000009 0.9999999999999999
v 0.5000000000000002 1.3750000000000009 0.9999999999999993
v 0.5000000000000003 0.9999999999999996 -1.1102230246251565e-16
v 0.5000000000000006 1.3749999999999996 -6.661338147750939e-16
vt 0.25 0.75
vt 0.25 0.84375
vt 0 0.84375
vt 0 0.75
vt 0.25 0.75
vt 0.25 0.84375
vt 0 0.84375
vt 0 0.75
vn 1 -3.002390728505367e-15 1.4547323094649275e-15
vn -1 1.5220933310491699e-15 -2.938145366545275e-16
f 41/57/15 42/58/15 44/59/15 43/60/15
f 45/61/16 46/62/16 48/63/16 47/64/16
o plane
v 0.5000000000000024 4.996003610813217e-16 5.551115123125783e-17
v 0.4999999999999987 -0.37499999999999944 -3.3306690738754696e-16
v 0.4999999999999983 -4.996003610813272e-16 1
v 0.49999999999999467 -0.37500000000000044 0.9999999999999996
v 0.49999999999999756 -7.216449660063524e-16 0.9999999999999998
v 0.49999999999999445 -0.37500000000000067 0.9999999999999993
v 0.5000000000000024 2.7755575615628983e-16 0
v 0.4999999999999997 -0.37499999999999967 -4.440892098500626e-16
vt 0.25 0.75
vt 0.25 0.84375
vt 0 0.84375
vt 0 0.75
vt 0.25 0.75
vt 0.25 0.84375
vt 0 0.84375
vt 0 0.75
vn -1 9.719240027487571e-15 -4.09638281366085e-15
vn 1 -8.238942630031374e-15 5.25730058647125e-15
f 49/65/17 50/66/17 52/67/17 51/68/17
f 53/69/18 54/70/18 56/71/18 55/72/18
o plane
v -1.1102230246251565e-16 0.49999999999999145 0
v -0.3750000000000001 0.49999999999999206 1.1102230246251565e-16
v 1.1102230246251565e-16 0.5000000000000079 1
v -0.3749999999999999 0.5000000000000084 1
v -1.1102230246251568e-16 0.5000000000000087 0.9999999999999999
v -0.3750000000000001 0.5000000000000087 1
v -3.3306690738754696e-16 0.49999999999999134 -1.1102230246251565e-16
v -0.37500000000000033 0.49999999999999106 0
vt 0.25 0.75
vt 0.25 0.84375
vt 0 0.84375
vt 0 0.75
vt 0.25 0.75
vt 0.25 0.84375
vt 0 0.84375
vt 0 0.75
vn 1.6146119477239214e-15 1 -1.6431300764452317e-14
vn -1.3431455026772233e-16 -1 1.7592218537262715e-14
f 57/73/19 58/74/19 60/75/19 59/76/19
f 61/77/20 62/78/20 64/79/20 63/80/20
o plane
v 0.9999999999999999 0.5000000000000049 0
v 1.375 0.5000000000000042 -1.1102230246251565e-16
v 1 0.49999999999999584 1
v 1.375 0.4999999999999952 0.9999999999999999
v 1.0000000000000004 0.49999999999999506 0.9999999999999999
v 1.3750000000000004 0.499999999999995 0.9999999999999998
v 1 0.500000000000005 -1.1102230246251565e-16
v 1.375 0.5000000000000052 -2.220446049250313e-16
vt 0.25 0.75
vt 0.25 0.84375
vt 0 0.84375
vt 0 0.75
vt 0.25 0.75
vt 0.25 0.84375
vt 0 0.84375
vt 0 0.75
vn -1.6146119477239238e-15 -1 -9.042941661386335e-15
vn 1.3431455026772534e-16 1 1.0203859434196733e-14
f 65/81/21 66/82/21 68/83/21 67/84/21
f 69/85/22 70/86/22 72/87/22 71/88/22
o plane
v 0 0.49999999999999123 0.9999999999999996
v -3.3306690738754696e-16 0.4999999999999919 1.3749999999999996
v 1 0.5000000000000081 1.0000000000000004
v 0.9999999999999997 0.5000000000000087 1.3750000000000004
v 0.9999999999999999 0.5000000000000088 1.0000000000000007
v 0.9999999999999996 0.5000000000000089 1.3750000000000007
v -1.1102230246251565e-16 0.4999999999999912 0.9999999999999998
v -4.440892098500626e-16 0.49999999999999095 1.3749999999999998
vt 0.25 0.75
vt 0.25 0.84375
vt 0 0.84375
vt 0 0.75
vt 0.25 0.75
vt 0.25 0.84375
vt 0 0.84375
vt 0 0.75
vn -1.681501190860348e-14 1 -1.7370766276386731e-15
vn 1.797592968141388e-14 -1 2.567792301824754e-16

f 73/89/23 74/90/23 76/91/23 75/92/23
f 77/93/24 78/94/24 80/95/24 79/96/24
o plane
v 0.4999999999999913 1 0.9999999999999999
v 0.4999999999999917 1 1.375
v 0.500000000000008 0 1
v 0.5000000000000084 5.551115123125783e-17 1.375
v 0.5000000000000088 1.1102230246251565e-16 1.0000000000000002
v 0.5000000000000085 1.6653345369377348e-16 1.3750000000000002
v 0.4999999999999912 1 1.0000000000000002
v 0.4999999999999907 1 1.3750000000000002
vt 0.25 0.75
vt 0.25 0.84375
vt 0 0.84375
vt 0 0.75
vt 0.25 0.75
vt 0.25 0.84375
vt 0 0.84375
vt 0 0.75
vn 1 1.6752925294387644e-14 -9.881727710892382e-16
vn -1 -1.7913843067198042e-14 -4.921246263669603e-16
f 81/97/25 82/98/25 84/99/25 83/100/25
f 85/101/26 86/102/26 88/103/26 87/104/26
o plane
v 0 0.5000000000000088 4.302114220422749e-16
v -3.3306690738754696e-16 0.500000000000009 -0.37499999999999956
v 1 0.49999999999999195 -4.3021142204227326e-16
v 0.9999999999999997 0.49999999999999223 -0.37500000000000044
v 0.9999999999999999 0.4999999999999912 -6.522560269673063e-16
v 0.9999999999999996 0.49999999999999206 -0.37500000000000067
v -1.1102230246251565e-16 0.5000000000000089 2.0816681711724387e-16
v -4.440892098500626e-16 0.50000000000001 -0.3749999999999998
vt 0.25 0.75
vt 0.25 0.84375
vt 0 0.84375
vt 0 0.75
vt 0.25 0.75
vt 0.25 0.84375
vt 0 0.84375
vt 0 0.75
vn -1.6815011908603585e-14 -1 -7.793064491240633e-16
vn 1.7975929681413983e-14 1 2.259603846580261e-15
f 89/105/27 90/106/27 92/107/27 91/108/27
f 93/109/28 94/110/28 96/111/28 95/112/28
o plane
v 0.49999999999999145 -1.1102230246251565e-16 -1.6666377846576456e-15
v 0.49999999999999195 1.1657341758564144e-15 -0.37500000000000167
v 0.5000000000000079 1 1.6666377846576458e-15
v 0.5000000000000084 1.0000000000000013 -0.37499999999999833
v 0.5000000000000087 1 1.444593179732614e-15
v 0.5000000000000085 1.0000000000000013 -0.37499999999999856
v 0.49999999999999134 -2.220446049250313e-16 -1.8886823895826773e-15
v 0.499999999999991 1.0547118733938987e-15 -0.3750000000000019
vt 0.25 0.75
vt 0.25 0.84375
vt 0 0.84375
vt 0 0.75
vt 0.25 0.75
vt 0.25 0.84375
vt 0 0.84375
vt 0 0.75
vn 1 -1.64198583870001e-14 1.4073080821187833e-15
vn -1 1.7580776159810492e-14 7.298931533741974e-17
f 97/113/29 98/114/29 100/115/29 99/116/29
f 101/117/30 102/118/30 104/119/30 103/120/30