# Made in Blockbench 5.1.6
mtllib table_saw.mtl

o unknown
v 1 0.3750000000000001 0.18750000000000006
v 0.8125 0.3750000000000002 4.163336342344337e-17
v 0.8125 0.3750000000000001 0.18750000000000006
v 0.8125 1.3877787807814457e-16 0.18749999999999994
v 0.8125 1.942890293094024e-16 -4.163336342344337e-17
v 1 1.942890293094024e-16 -4.163336342344337e-17
v 1 1.3877787807814457e-16 0.18749999999999994
vt 0.25 0.25
vt 0.25 0
vt 0.5 0
vt 0.5 0.25
vt 0.75 0.25
vt 0.75 0
vt 1 0
vt 1 0.25
vt 0.25 0.5
vt 0.25 0.25
vt 0.5 0.25
vt 0.5 0.5
vn 0 -1 -2.220446049250313e-16
vn -1 0 0
vn 0 -2.220446049250313e-16 1
usemtl m_e330cd03-bbd5-08cf-3382-dc3ac820342d
f 4/1/1 5/2/1 6/3/1 7/4/1
f 2/5/2 5/6/2 4/7/2 3/8/2
f 3/9/3 4/10/3 7/11/3 1/12/3
o unknown
v 1 1 1.0000000000000002
v 1 1.0000000000000002 2.220446049250313e-16
v 0 1.0000000000000002 2.220446049250313e-16
v 0 1 1.0000000000000002
v 0 0.375 1
v 0 0.3750000000000002 1.1102230246251565e-16
v 1 0.3750000000000002 1.1102230246251565e-16
v 1 0.375 1
vt 0 0.25
vt 0 0
vt 0.25 0
vt 0.25 0.25
vt 0.25 0.25
vt 0.25 0
vt 0.5 0
vt 0.5 0.25
vt 0.5 0.25
vt 0.5 0.09375
vt 0.75 0.09375
vt 0.75 0.25
vt 0.75 0.25
vt 0.75 0.09375
vt 1 0.09375
vt 1 0.25
vt 0 0.5
vt 0 0.34375
vt 0.25 0.34375
vt 0.25 0.5
vt 0.25 0.5
vt 0.25 0.34375
vt 0.5 0.34375
vt 0.5 0.5
vn 0 1 2.220446049250313e-16
vn 0 -1 -2.220446049250313e-16
vn 1 0 0
vn -1 0 0
vn 0 2.220446049250313e-16 -1
vn 0 -2.220446049250313e-16 1
usemtl m_e330cd03-bbd5-08cf-3382-dc3ac820342d
f 8/13/4 9/14/4 10/15/4 11/16/4
f 12/17/5 13/18/5 14/19/5 15/20/5
f 8/21/6 15/22/6 14/23/6 9/24/6
f 10/25/7 13/26/7 12/27/7 11/28/7
f 9/29/8 14/30/8 13/31/8 10/32/8
f 11/33/9 12/34/9 15/35/9 8/36/9
o unknown
v 0.1875 0.3750000000000001 0.18750000000000006
v 0.1875 0.3750000000000002 4.163336342344337e-17
v 0 0.3750000000000001 0.18750000000000006
v 0 1.3877787807814457e-16 0.18749999999999994
v 0 1.942890293094024e-16 -4.163336342344337e-17
v 0.1875 1.942890293094024e-16 -4.163336342344337e-17
v 0.1875 1.3877787807814457e-16 0.18749999999999994
vt 0.25 0.25
vt 0.25 0
vt 0.5 0
vt 0.5 0.25
vt 0.5 0.25
vt 0.5 0
vt 0.75 0
vt 0.75 0.25
vt 0.25 0.5
vt 0.25 0.25
vt 0.5 0.25
vt 0.5 0.5
vn 0 -1 -2.220446049250313e-16
vn 1 0 0
vn 0 -2.220446049250313e-16 1
usemtl m_e330cd03-bbd5-08cf-3382-dc3ac820342d
f 19/37/10 20/38/10 21/39/10 22/40/10
f 16/41/11 22/42/11 21/43/11 17/44/11
f 18/45/12 19/46/12 22/47/12 16/48/12
o unknown
v 1 0.37500000000000017 1
v 1 0.3750000000000004 0
v 0 0.3750000000000004 0
v 0 0.37500000000000017 1
v 0 1.6653345369377348e-16 1
v 0 3.885780586188048e-16 0
v 1 3.885780586188048e-16 0
v 1 1.6653345369377348e-16 1
vt 0.5 0.09375
vt 0.5 0
vt 0.75 0
vt 0.75 0.09375
vt 0.75 0.09375
vt 0.75 0
vt 1 0
vt 1 0.09375
vt 0 0.34375
vt 0 0.25
vt 0.25 0.25
vt 0.25 0.34375
vt 0.25 0.34375
vt 0.25 0.25
vt 0.5 0.25
vt 0.5 0.34375
vn 1 0 0
vn -1 0 0
vn 0 2.220446049250313e-16 -1
vn 0 -2.220446049250313e-16 1
usemtl m_e330cd03-bbd5-08cf-3382-dc3ac820342d
f 23/49/13 30/50/13 29/51/13 24/52/13
f 25/53/14 28/54/14 27/55/14 26/56/14
f 24/57/15 29/58/15 28/59/15 25/60/15
f 26/61/16 27/62/16 30/63/16 23/64/16
o unknown
v 0.1875 0.37500000000000017 1
v 0.1875 0.3750000000000002 0.8125
v 0 0.3750000000000002 0.8125
v 0 1.6653345369377348e-16 1
v 0 1.942890293094024e-16 0.8125
v 0.1875 1.942890293094024e-16 0.8125
v 0.1875 1.6653345369377348e-16 1
vt 0.25 0.25
vt 0.25 0
vt 0.5 0
vt 0.5 0.25
vt 0.5 0.25
vt 0.5 0
vt 0.75 0
vt 0.75 0.25
vt 0 0.5
vt 0 0.25
vt 0.25 0.25
vt 0.25 0.5
vn 0 -1 -2.220446049250313e-16
vn 1 0 0
vn 0 2.220446049250313e-16 -1
usemtl m_e330cd03-bbd5-08cf-3382-dc3ac820342d
f 34/65/17 35/66/17 36/67/17 37/68/17
f 31/69/18 37/70/18 36/71/18 32/72/18
f 32/73/19 36/74/19 35/75/19 33/76/19
o plane
v 0.5000000000000001 1.3750000000000004 5.551115123125783e-17
v 0.4999999999999999 0.9999999999999999 -1.1102230246251565e-16
v 0.4999999999999997 1.375 0.9999999999999999
v 0.49999999999999944 0.9999999999999994 0.9999999999999998
v 0.5000000000000001 0.9999999999999997 4.440892098500626e-16
v 0.5000000000000004 1.3750000000000002 -4.440892098500626e-16
v 0.4999999999999991 0.9999999999999997 1.0000000000000004
v 0.4999999999999995 1.375 0.9999999999999993
vt 0.75 0.34375
vt 0.75 0.25
vt 0.5 0.25
vt 0.5 0.34375
vt 0.75 0.25
vt 0.75 0.34375
vt 0.5 0.34375
vt 0.5 0.25
vn -1 6.661338147750941e-16 -4.440892098500623e-16
vn 1 -9.927062945477208e-16 9.992007221626407e-16
usemtl m_e330cd03-bbd5-08cf-3382-dc3ac820342d
f 38/77/20 39/78/20 41/79/20 40/80/20
f 42/81/21 43/82/21 45/83/21 44/84/21
o unknown_selection
v 0.8125 1.6653345369377348e-16 1
v 0.8125 1.942890293094024e-16 0.8125
v 1 1.942890293094024e-16 0.8125
v 1 1.6653345369377348e-16 1
vt 0.25 0.25
vt 0.25 0
vt 0.5 0
vt 0.5 0.25
vn 0 -1 -2.220446049250313e-16
usemtl m_e330cd03-bbd5-08cf-3382-dc3ac820342d
f 46/85/22 47/86/22 48/87/22 49/88/22
o unknown
v 1 0.3750000000000002 0.8125
v 0.8125 0.3750000000000002 0.8125
v 0.8125 0.37500000000000017 1
v 0.8125 1.6653345369377348e-16 1
v 0.8125 1.942890293094024e-16 0.8125
v 1 1.942890293094024e-16 0.8125
vt 0.75 0.09375
vt 0.75 0
vt 1 0
vt 1 0.09375
vt 0 0.34375
vt 0 0.25
vt 0.25 0.25
vt 0.25 0.34375
vn -1 0 0
vn 0 2.220446049250313e-16 -1
usemtl m_e330cd03-bbd5-08cf-3382-dc3ac820342d
f 51/89/23 54/90/23 53/91/23 52/92/23
f 50/93/24 55/94/24 54/95/24 51/96/24